<svg width="279" height="93" viewBox="0 0 279 93" fill="none" xmlns="http://www.w3.org/2000/svg">
<path d="M225.011 45.1846C224.345 45.1846 223.732 45.0729 223.172 44.8496C222.616 44.6263 222.135 44.2936 221.729 43.8516C221.324 43.4095 221.009 42.8581 220.786 42.1973C220.563 41.5365 220.451 40.7777 220.451 39.9209C220.451 39.0687 220.558 38.3258 220.772 37.6924C220.991 37.0589 221.308 36.5075 221.723 36.0381C222.128 35.5824 222.609 35.236 223.165 34.999C223.721 34.7575 224.343 34.6367 225.031 34.6367C225.373 34.6367 225.692 34.6618 225.988 34.7119C226.289 34.762 226.567 34.8258 226.822 34.9033C227.041 34.9717 227.264 35.0583 227.492 35.1631C227.725 35.2633 227.952 35.375 228.176 35.498V37.1318H228.066C227.948 37.0225 227.795 36.8903 227.608 36.7354C227.422 36.5804 227.194 36.4277 226.925 36.2773C226.665 36.1361 226.382 36.0199 226.077 35.9287C225.772 35.8376 225.419 35.792 225.018 35.792C224.585 35.792 224.174 35.8809 223.787 36.0586C223.4 36.2363 223.06 36.4984 222.769 36.8447C222.481 37.1911 222.258 37.6263 222.099 38.1504C221.939 38.6745 221.859 39.2646 221.859 39.9209C221.859 40.6182 221.944 41.2197 222.112 41.7256C222.281 42.2269 222.511 42.6507 222.803 42.9971C223.085 43.3343 223.418 43.5895 223.801 43.7627C224.184 43.9313 224.589 44.0156 225.018 44.0156C225.41 44.0156 225.772 43.9678 226.104 43.8721C226.437 43.7764 226.733 43.6556 226.993 43.5098C227.244 43.3685 227.46 43.2249 227.643 43.0791C227.825 42.9287 227.968 42.8011 228.073 42.6963H228.176V44.3096C227.952 44.4144 227.741 44.5146 227.54 44.6104C227.344 44.7061 227.105 44.7995 226.822 44.8906C226.526 44.9863 226.25 45.0592 225.995 45.1094C225.744 45.1595 225.416 45.1846 225.011 45.1846ZM240.139 35.9902C240.526 36.4368 240.827 36.9906 241.041 37.6514C241.255 38.3122 241.362 39.0664 241.362 39.9141C241.362 40.7389 241.257 41.484 241.048 42.1494C240.838 42.8148 240.535 43.373 240.139 43.8242C239.724 44.2982 239.239 44.6491 238.683 44.877C238.131 45.1003 237.523 45.2119 236.857 45.2119C236.169 45.2119 235.549 45.0957 234.998 44.8633C234.447 44.6309 233.973 44.2845 233.576 43.8242C233.184 43.373 232.883 42.8171 232.674 42.1562C232.464 41.4954 232.359 40.748 232.359 39.9141C232.359 39.0573 232.464 38.3053 232.674 37.6582C232.888 37.0111 233.191 36.4551 233.583 35.9902C233.975 35.5391 234.447 35.1973 234.998 34.9648C235.554 34.7279 236.174 34.6094 236.857 34.6094C237.55 34.6094 238.174 34.7301 238.73 34.9717C239.286 35.2132 239.756 35.5527 240.139 35.9902ZM239.954 39.9141C239.954 39.2396 239.881 38.6426 239.735 38.123C239.59 37.6035 239.384 37.1729 239.12 36.8311C238.851 36.4801 238.525 36.2181 238.143 36.0449C237.764 35.8672 237.338 35.7783 236.864 35.7783C236.372 35.7783 235.941 35.8649 235.572 36.0381C235.208 36.2067 234.884 36.471 234.602 36.8311C234.333 37.1774 234.125 37.6126 233.979 38.1367C233.838 38.6608 233.768 39.2533 233.768 39.9141C233.768 41.2493 234.048 42.2725 234.608 42.9834C235.169 43.6898 235.921 44.043 236.864 44.043C237.808 44.043 238.557 43.6898 239.113 42.9834C239.674 42.2725 239.954 41.2493 239.954 39.9141ZM254.378 39.9209C254.378 40.8506 254.189 41.6891 253.811 42.4365C253.437 43.1839 252.933 43.7673 252.3 44.1865C251.785 44.5101 251.261 44.7266 250.728 44.8359C250.199 44.9453 249.522 45 248.697 45H246.353V34.8213H248.67C249.627 34.8213 250.377 34.8942 250.919 35.04C251.466 35.1813 251.931 35.3773 252.313 35.6279C252.97 36.0609 253.478 36.6374 253.838 37.3574C254.198 38.0729 254.378 38.9274 254.378 39.9209ZM252.97 39.9004C252.97 39.1165 252.84 38.4489 252.58 37.8975C252.32 37.3415 251.935 36.9085 251.425 36.5986C251.065 36.3799 250.68 36.2227 250.27 36.127C249.859 36.0312 249.349 35.9834 248.738 35.9834H247.706V43.8379H248.738C249.34 43.8379 249.866 43.79 250.317 43.6943C250.769 43.5986 251.181 43.4209 251.555 43.1611C252.024 42.8421 252.377 42.4183 252.614 41.8896C252.851 41.3564 252.97 40.6934 252.97 39.9004ZM259.354 45V34.8213H265.719V36.0244H260.708V38.8135H265.377V40.0166H260.708V43.7969H265.719V45H259.354ZM278.598 45H276.841L273.614 40.9531H272.069V45H270.716V34.8213H273.341C273.924 34.8213 274.412 34.8532 274.804 34.917C275.2 34.9808 275.576 35.1289 275.932 35.3613C276.287 35.5892 276.567 35.8831 276.772 36.2432C276.982 36.6032 277.087 37.0498 277.087 37.583C277.087 38.3304 276.898 38.9548 276.52 39.4561C276.141 39.9574 275.626 40.3288 274.975 40.5703L278.598 45ZM275.672 37.6855C275.672 37.3893 275.619 37.1273 275.515 36.8994C275.41 36.667 275.248 36.4779 275.029 36.332C274.838 36.2044 274.615 36.1156 274.359 36.0654C274.104 36.0107 273.787 35.9834 273.409 35.9834H272.069V39.8252H273.259C273.646 39.8252 273.995 39.791 274.305 39.7227C274.615 39.6543 274.879 39.513 275.098 39.2988C275.294 39.1074 275.437 38.8796 275.528 38.6152C275.624 38.3509 275.672 38.041 275.672 37.6855Z" fill="black"/>
<path d="M108.222 62.7432H107.289V61H102.187V62.748H101.249L101.244 60.2334H101.825C102.131 59.8883 102.374 59.4261 102.553 58.8467C102.735 58.264 102.849 57.626 102.895 56.9326L103.051 53.8906H107.304V60.2334H108.231L108.222 62.7432ZM102.895 60.2334H106.361V54.6621H103.954L103.852 56.752C103.809 57.569 103.7 58.2656 103.524 58.8418C103.352 59.418 103.142 59.8818 102.895 60.2334Z" fill="#0284AD"/>
<path d="M115.827 53.8906H116.765V61H115.827V55.5215L112.326 61H111.384V53.8906H112.326V59.3691L115.827 53.8906Z" fill="#0284AD"/>
<path d="M124.121 55.7998C124.121 55.4222 123.983 55.1227 123.706 54.9014C123.433 54.6768 123.047 54.5645 122.549 54.5645C122.132 54.5645 121.782 54.68 121.499 54.9111C121.219 55.139 121.079 55.4222 121.079 55.7607H120.142C120.142 55.3831 120.244 55.0446 120.449 54.7451C120.658 54.4456 120.947 54.2129 121.318 54.0469C121.689 53.8776 122.1 53.793 122.549 53.793C123.343 53.793 123.96 53.972 124.399 54.3301C124.839 54.6849 125.059 55.1797 125.059 55.8145C125.059 56.1432 124.958 56.4427 124.756 56.7129C124.554 56.9831 124.272 57.1963 123.911 57.3525C124.748 57.6325 125.166 58.1875 125.166 59.0176C125.166 59.6556 124.928 60.1618 124.453 60.5361C123.978 60.9105 123.343 61.0977 122.549 61.0977C122.077 61.0977 121.647 61.0146 121.26 60.8486C120.876 60.6794 120.576 60.4401 120.361 60.1309C120.146 59.8216 120.039 59.4538 120.039 59.0273H120.977C120.977 59.4017 121.125 59.7142 121.421 59.9648C121.717 60.2122 122.093 60.3359 122.549 60.3359C123.06 60.3359 123.467 60.2171 123.77 59.9795C124.076 59.7419 124.229 59.4277 124.229 59.0371C124.229 58.2038 123.713 57.779 122.681 57.7627H121.802V56.9912H122.676C123.151 56.9814 123.511 56.874 123.755 56.6689C123.999 56.4639 124.121 56.1742 124.121 55.7998Z" fill="#0284AD"/>
<path d="M132.337 59.1445H129.358L128.689 61H127.723L130.438 53.8906H131.258L133.978 61H133.016L132.337 59.1445ZM129.642 58.373H132.059L130.848 55.0479L129.642 58.373Z" fill="#0284AD"/>
<path d="M141.417 53.8906H142.354V61H141.417V55.5215L137.916 61H136.974V53.8906H137.916V59.3691L141.417 53.8906ZM141.153 52.123C141.153 52.5169 141.018 52.8343 140.748 53.0752C140.481 53.3128 140.13 53.4316 139.693 53.4316C139.257 53.4316 138.904 53.3112 138.634 53.0703C138.364 52.8294 138.229 52.5137 138.229 52.123H138.966C138.966 52.3509 139.028 52.5299 139.151 52.6602C139.275 52.7871 139.456 52.8506 139.693 52.8506C139.921 52.8506 140.099 52.7871 140.226 52.6602C140.356 52.5332 140.421 52.3542 140.421 52.123H141.153Z" fill="#0284AD"/>
<path d="M151.527 61H150.585V57.7139H147.001V61H146.063V53.8906H147.001V56.9473H150.585V53.8906H151.527V61Z" fill="#0284AD"/>
<path d="M164.155 53.8906H165.093V61H164.155V55.5215L160.654 61H159.712V53.8906H160.654V59.3691L164.155 53.8906Z" fill="#0284AD"/>
<path d="M173.282 61V53.8906H175.606C176.378 53.8906 176.957 54.0501 177.345 54.3691C177.735 54.6882 177.931 55.1602 177.931 55.7852C177.931 56.1172 177.836 56.4118 177.647 56.6689C177.459 56.9229 177.201 57.1198 176.876 57.2598C177.26 57.3672 177.563 57.5723 177.784 57.875C178.009 58.1745 178.121 58.5326 178.121 58.9492C178.121 59.5872 177.914 60.0885 177.501 60.4531C177.088 60.8177 176.503 61 175.748 61H173.282ZM174.22 57.6748V60.2334H175.768C176.204 60.2334 176.547 60.1211 176.798 59.8965C177.052 59.6686 177.179 59.3561 177.179 58.959C177.179 58.1029 176.713 57.6748 175.782 57.6748H174.22ZM174.22 56.9229H175.636C176.046 56.9229 176.373 56.8203 176.617 56.6152C176.865 56.4102 176.988 56.1318 176.988 55.7803C176.988 55.3896 176.874 55.1064 176.646 54.9307C176.419 54.7516 176.072 54.6621 175.606 54.6621H174.22V56.9229Z" fill="#0284AD"/>
<path d="M185.531 57.7139H182.45V60.2334H186.029V61H181.513V53.8906H185.98V54.6621H182.45V56.9473H185.531V57.7139ZM182.138 52.7334C182.138 52.5869 182.182 52.4648 182.27 52.3672C182.361 52.2663 182.494 52.2158 182.67 52.2158C182.846 52.2158 182.979 52.2663 183.07 52.3672C183.161 52.4648 183.207 52.5869 183.207 52.7334C183.207 52.8799 183.161 53.002 183.07 53.0996C182.979 53.1973 182.846 53.2461 182.67 53.2461C182.494 53.2461 182.361 53.1973 182.27 53.0996C182.182 53.002 182.138 52.8799 182.138 52.7334ZM184.237 52.7432C184.237 52.5967 184.281 52.473 184.369 52.3721C184.46 52.2712 184.594 52.2207 184.77 52.2207C184.945 52.2207 185.079 52.2712 185.17 52.3721C185.261 52.473 185.307 52.5967 185.307 52.7432C185.307 52.8896 185.261 53.0117 185.17 53.1094C185.079 53.207 184.945 53.2559 184.77 53.2559C184.594 53.2559 184.46 53.207 184.369 53.1094C184.281 53.0117 184.237 52.8896 184.237 52.7432Z" fill="#0284AD"/>
<path d="M190.134 58.2168V61H189.196V53.8906H191.818C192.596 53.8906 193.205 54.0892 193.645 54.4863C194.087 54.8835 194.309 55.4092 194.309 56.0635C194.309 56.7536 194.092 57.2858 193.659 57.6602C193.229 58.0312 192.613 58.2168 191.809 58.2168H190.134ZM190.134 57.4502H191.818C192.32 57.4502 192.704 57.333 192.971 57.0986C193.238 56.861 193.371 56.5192 193.371 56.0732C193.371 55.6501 193.238 55.3115 192.971 55.0576C192.704 54.8037 192.338 54.6719 191.872 54.6621H190.134V57.4502Z" fill="#0284AD"/>
<path d="M202.734 58.7441C202.646 59.4961 202.368 60.0771 201.899 60.4873C201.434 60.8942 200.814 61.0977 200.039 61.0977C199.199 61.0977 198.525 60.7965 198.018 60.1943C197.513 59.5921 197.261 58.7865 197.261 57.7773V57.0938C197.261 56.4329 197.378 55.8519 197.612 55.3506C197.85 54.8493 198.185 54.4652 198.618 54.1982C199.051 53.9281 199.552 53.793 200.122 53.793C200.877 53.793 201.483 54.0046 201.938 54.4277C202.394 54.8477 202.66 55.4303 202.734 56.1758H201.792C201.711 55.6094 201.533 55.1992 201.26 54.9453C200.99 54.6914 200.61 54.5645 200.122 54.5645C199.523 54.5645 199.053 54.7858 198.711 55.2285C198.372 55.6712 198.203 56.3011 198.203 57.1182V57.8066C198.203 58.5781 198.364 59.1917 198.687 59.6475C199.009 60.1032 199.46 60.3311 200.039 60.3311C200.56 60.3311 200.959 60.2139 201.235 59.9795C201.515 59.7419 201.701 59.3301 201.792 58.7441H202.734Z" fill="#0284AD"/>
<path d="M210.784 54.6621H208.499V61H207.566V54.6621H205.286V53.8906H210.784V54.6621Z" fill="#0284AD"/>
<path d="M215.685 57.8066H214.82V61H213.883V53.8906H214.82V57.0254H215.553L218.038 53.8906H219.205L216.49 57.3379L219.405 61H218.258L215.685 57.8066Z" fill="#0284AD"/>
<path d="M226.19 59.1445H223.212L222.543 61H221.576L224.291 53.8906H225.111L227.831 61H226.869L226.19 59.1445ZM223.495 58.373H225.912L224.701 55.0479L223.495 58.373Z" fill="#0284AD"/>
<path d="M240.498 58.7441C240.41 59.4961 240.132 60.0771 239.663 60.4873C239.198 60.8942 238.577 61.0977 237.803 61.0977C236.963 61.0977 236.289 60.7965 235.781 60.1943C235.277 59.5921 235.024 58.7865 235.024 57.7773V57.0938C235.024 56.4329 235.142 55.8519 235.376 55.3506C235.614 54.8493 235.949 54.4652 236.382 54.1982C236.815 53.9281 237.316 53.793 237.886 53.793C238.641 53.793 239.246 54.0046 239.702 54.4277C240.158 54.8477 240.423 55.4303 240.498 56.1758H239.556C239.474 55.6094 239.297 55.1992 239.023 54.9453C238.753 54.6914 238.374 54.5645 237.886 54.5645C237.287 54.5645 236.816 54.7858 236.475 55.2285C236.136 55.6712 235.967 56.3011 235.967 57.1182V57.8066C235.967 58.5781 236.128 59.1917 236.45 59.6475C236.772 60.1032 237.223 60.3311 237.803 60.3311C238.324 60.3311 238.722 60.2139 238.999 59.9795C239.279 59.7419 239.465 59.3301 239.556 58.7441H240.498Z" fill="#0284AD"/>
<path d="M247.708 59.1445H244.729L244.061 61H243.094L245.809 53.8906H246.629L249.349 61H248.387L247.708 59.1445ZM245.013 58.373H247.43L246.219 55.0479L245.013 58.373Z" fill="#0284AD"/>
<path d="M256.788 53.8906H257.726V61H256.788V55.5215L253.287 61H252.345V53.8906H253.287V59.3691L256.788 53.8906ZM256.524 52.123C256.524 52.5169 256.389 52.8343 256.119 53.0752C255.852 53.3128 255.501 53.4316 255.064 53.4316C254.628 53.4316 254.275 53.3112 254.005 53.0703C253.735 52.8294 253.6 52.5137 253.6 52.123H254.337C254.337 52.3509 254.399 52.5299 254.522 52.6602C254.646 52.7871 254.827 52.8506 255.064 52.8506C255.292 52.8506 255.47 52.7871 255.597 52.6602C255.727 52.5332 255.792 52.3542 255.792 52.123H256.524Z" fill="#0284AD"/>
<path d="M266.347 54.6621H264.062V61H263.129V54.6621H260.849V53.8906H266.347V54.6621Z" fill="#0284AD"/>
<path d="M272.937 59.1445H269.958L269.289 61H268.322L271.037 53.8906H271.857L274.577 61H273.615L272.937 59.1445ZM270.241 58.373H272.658L271.447 55.0479L270.241 58.373Z" fill="#0284AD"/>
<path d="M117.383 27.5508L111.383 45H106.812L100.812 27.5508H105.359L109.156 39.375L112.953 27.5508H117.383Z" fill="#0284AD"/>
<path d="M127.695 45H118.297V41.9531H120.805V30.5977H118.297V27.5508H127.695V30.5977H125.188V41.9531H127.695V45Z" fill="#0284AD"/>
<path d="M145.895 45H140.598L135.84 37.9102L134.984 39.1055V45H130.602V27.5508H134.984V35.2969L140.562 27.5508H145.637L139.414 35.6484L145.895 45Z" fill="#0284AD"/>
<path d="M154.367 45.3633C152.023 45.3633 150.219 44.7969 148.953 43.6641C147.695 42.5312 147.066 40.875 147.066 38.6953V27.5508H151.449V38.4375C151.449 39.6484 151.676 40.5508 152.129 41.1445C152.59 41.7383 153.336 42.0352 154.367 42.0352C155.375 42.0352 156.113 41.75 156.582 41.1797C157.059 40.6094 157.297 39.6953 157.297 38.4375V27.5508H161.68V38.6836C161.68 40.832 161.062 42.4844 159.828 43.6406C158.602 44.7891 156.781 45.3633 154.367 45.3633Z" fill="#0284AD"/>
<path d="M176.703 45H165.055V27.5508H169.438V41.6719H176.703V45Z" fill="#0284AD"/>
<path d="M194.68 36.2812C194.68 39.1016 193.926 41.3203 192.418 42.9375C190.91 44.5547 188.844 45.3633 186.219 45.3633C183.586 45.3633 181.52 44.5469 180.02 42.9141C178.52 41.2734 177.77 39.0625 177.77 36.2812C177.77 33.4766 178.52 31.2617 180.02 29.6367C181.52 28.0039 183.586 27.1875 186.219 27.1875C188.844 27.1875 190.91 28 192.418 29.625C193.926 31.2422 194.68 33.4609 194.68 36.2812ZM190.156 36.2695C190.156 35.2305 190.047 34.3477 189.828 33.6211C189.617 32.8867 189.332 32.2852 188.973 31.8164C188.598 31.3398 188.172 31 187.695 30.7969C187.227 30.5859 186.738 30.4805 186.23 30.4805C185.691 30.4805 185.203 30.5781 184.766 30.7734C184.328 30.9609 183.906 31.3008 183.5 31.793C183.141 32.2461 182.848 32.8477 182.621 33.5977C182.402 34.3477 182.293 35.2422 182.293 36.2812C182.293 37.3516 182.398 38.2422 182.609 38.9531C182.82 39.6562 183.109 40.2461 183.477 40.7227C183.852 41.207 184.277 41.5547 184.754 41.7656C185.23 41.9688 185.723 42.0703 186.23 42.0703C186.746 42.0703 187.246 41.9609 187.73 41.7422C188.215 41.5156 188.633 41.168 188.984 40.6992C189.359 40.1914 189.648 39.6016 189.852 38.9297C190.055 38.25 190.156 37.3633 190.156 36.2695Z" fill="#0284AD"/>
<path d="M211.859 27.5508L205.859 45H201.289L195.289 27.5508H199.836L203.633 39.375L207.43 27.5508H211.859Z" fill="#0284AD"/>
<g filter="url(#filter0_d)">
<path fill-rule="evenodd" clip-rule="evenodd" d="M47 80C67.9868 80 85 62.9868 85 42C85 21.0132 67.9868 4 47 4C26.0132 4 9 21.0132 9 42C9 62.9868 26.0132 80 47 80ZM57.8649 62C55.026 62 53.0314 59.2049 53.9545 56.5203L62.1755 32.6121C63.1038 29.9124 61.098 27.1016 58.2431 27.1016C56.4363 27.1016 54.8363 28.2683 54.2839 29.9886L53.7702 31.5882C51.8493 37.5705 43.3851 37.5705 41.4642 31.5882L40.975 30.0649C40.408 28.2991 38.7656 27.1016 36.911 27.1016C33.9807 27.1016 31.9218 29.9867 32.8746 32.7579L40.8557 55.9685C41.8718 58.9234 39.6763 62 36.5515 62H33C32.4477 62 32 62.4477 32 63C32 63.5523 32.4477 64 33 64H61C61.5523 64 62 63.5523 62 63C62 62.4477 61.5523 62 61 62H57.8649ZM52 72C52 74.7614 49.7614 77 47 77C44.2386 77 42 74.7614 42 72C42 69.2386 44.2386 67 47 67C49.7614 67 52 69.2386 52 72ZM17 42.5C17.5523 42.5 17.9983 42.0502 18.0167 41.4982C18.5338 26.0022 31.0022 13.5338 46.4982 13.0167C47.0502 12.9983 47.5 12.5523 47.5 12C47.5 11.4477 47.0499 10.9984 46.4979 11.0156C29.8974 11.5344 16.5344 24.8974 16.0156 41.4979C15.9984 42.0499 16.4477 42.5 17 42.5Z" fill="black"/>
<path fill-rule="evenodd" clip-rule="evenodd" d="M91 13C91 5.8203 85.1797 0 78 0H17C9.8203 0 4 5.8203 4 13V72C4 79.1797 9.8203 85 17 85H78C85.1797 85 91 79.1797 91 72V13ZM47 82C69.0914 82 87 64.0914 87 42C87 19.9086 69.0914 2 47 2C24.9086 2 7 19.9086 7 42C7 64.0914 24.9086 82 47 82Z" fill="black"/>
</g>
<defs>
<filter id="filter0_d" x="0" y="0" width="95" height="93" filterUnits="userSpaceOnUse" color-interpolation-filters="sRGB">
<feFlood flood-opacity="0" result="BackgroundImageFix"/>
<feColorMatrix in="SourceAlpha" type="matrix" values="0 0 0 0 0 0 0 0 0 0 0 0 0 0 0 0 0 0 127 0"/>
<feOffset dy="4"/>
<feGaussianBlur stdDeviation="2"/>
<feColorMatrix type="matrix" values="0 0 0 0 0 0 0 0 0 0 0 0 0 0 0 0 0 0 0.25 0"/>
<feBlend mode="normal" in2="BackgroundImageFix" result="effect1_dropShadow"/>
<feBlend mode="normal" in="SourceGraphic" in2="effect1_dropShadow" result="shape"/>
</filter>
</defs>
</svg>
